<mxfile host="app.diagrams.net" modified="2023-07-13T12:10:08.316Z" agent="Mozilla/5.0 (X11; Linux x86_64; rv:109.0) Gecko/20100101 Firefox/114.0" etag="vXL3jCpoDPTxM8pVhod6" version="21.5.2" type="device">
  <diagram name="Page-1" id="ib7YQ8dmzTgjliabe1r1">
    <mxGraphModel dx="2643" dy="938" grid="1" gridSize="10" guides="1" tooltips="1" connect="1" arrows="1" fold="1" page="1" pageScale="1" pageWidth="850" pageHeight="1100" math="1" shadow="0">
      <root>
        <mxCell id="0" />
        <mxCell id="1" parent="0" />
        <mxCell id="mtoPgqjbaPqBO0kMTFjv-3" value="Manual feature tree" style="swimlane;startSize=20;horizontal=1;childLayout=treeLayout;horizontalTree=0;resizable=0;containerType=tree;fontSize=12;" parent="1" vertex="1">
          <mxGeometry x="770" y="100" width="280" height="190" as="geometry" />
        </mxCell>
        <mxCell id="mtoPgqjbaPqBO0kMTFjv-4" value="Has feature 1 ?" style="whiteSpace=wrap;html=1;" parent="mtoPgqjbaPqBO0kMTFjv-3" vertex="1">
          <mxGeometry x="90" y="40" width="100" height="40" as="geometry" />
        </mxCell>
        <mxCell id="mtoPgqjbaPqBO0kMTFjv-5" value="Has feature 2 ?" style="whiteSpace=wrap;html=1;" parent="mtoPgqjbaPqBO0kMTFjv-3" vertex="1">
          <mxGeometry x="20" y="130" width="100" height="40" as="geometry" />
        </mxCell>
        <mxCell id="mtoPgqjbaPqBO0kMTFjv-6" value="" style="edgeStyle=elbowEdgeStyle;elbow=vertical;html=1;rounded=1;curved=0;sourcePerimeterSpacing=0;targetPerimeterSpacing=0;startSize=6;endSize=6;" parent="mtoPgqjbaPqBO0kMTFjv-3" source="mtoPgqjbaPqBO0kMTFjv-4" target="mtoPgqjbaPqBO0kMTFjv-5" edge="1">
          <mxGeometry relative="1" as="geometry" />
        </mxCell>
        <mxCell id="mtoPgqjbaPqBO0kMTFjv-7" value="Has feature .. ?" style="whiteSpace=wrap;html=1;" parent="mtoPgqjbaPqBO0kMTFjv-3" vertex="1">
          <mxGeometry x="160" y="130" width="100" height="40" as="geometry" />
        </mxCell>
        <mxCell id="mtoPgqjbaPqBO0kMTFjv-8" value="" style="edgeStyle=elbowEdgeStyle;elbow=vertical;html=1;rounded=1;curved=0;sourcePerimeterSpacing=0;targetPerimeterSpacing=0;startSize=6;endSize=6;" parent="mtoPgqjbaPqBO0kMTFjv-3" source="mtoPgqjbaPqBO0kMTFjv-4" target="mtoPgqjbaPqBO0kMTFjv-7" edge="1">
          <mxGeometry relative="1" as="geometry" />
        </mxCell>
        <mxCell id="mtoPgqjbaPqBO0kMTFjv-13" value="Yes" style="text;html=1;strokeColor=none;fillColor=none;align=center;verticalAlign=middle;whiteSpace=wrap;rounded=0;" parent="mtoPgqjbaPqBO0kMTFjv-3" vertex="1">
          <mxGeometry x="60" y="80" width="60" height="30" as="geometry" />
        </mxCell>
        <mxCell id="mtoPgqjbaPqBO0kMTFjv-14" value="No" style="text;html=1;strokeColor=none;fillColor=none;align=center;verticalAlign=middle;whiteSpace=wrap;rounded=0;" parent="mtoPgqjbaPqBO0kMTFjv-3" vertex="1">
          <mxGeometry x="160" y="80" width="60" height="30" as="geometry" />
        </mxCell>
        <mxCell id="mtoPgqjbaPqBO0kMTFjv-17" value="" style="group" parent="1" vertex="1" connectable="0">
          <mxGeometry x="141" y="332" width="320" height="220" as="geometry" />
        </mxCell>
        <mxCell id="mtoPgqjbaPqBO0kMTFjv-1" value="" style="rounded=1;whiteSpace=wrap;html=1;fillColor=#9BE8A1;strokeColor=#82b366;" parent="mtoPgqjbaPqBO0kMTFjv-17" vertex="1">
          <mxGeometry width="320" height="220" as="geometry" />
        </mxCell>
        <mxCell id="mtoPgqjbaPqBO0kMTFjv-2" value="&lt;div&gt;&lt;font style=&quot;font-size: 19px;&quot;&gt;Feature encoder&lt;br&gt;&lt;/font&gt;&lt;/div&gt;&lt;div&gt;&lt;font style=&quot;font-size: 19px;&quot;&gt;GPT-type&lt;br&gt;&lt;/font&gt;&lt;/div&gt;" style="text;html=1;strokeColor=none;fillColor=none;align=center;verticalAlign=middle;whiteSpace=wrap;rounded=0;" parent="mtoPgqjbaPqBO0kMTFjv-17" vertex="1">
          <mxGeometry x="45" y="40" width="230" height="140" as="geometry" />
        </mxCell>
        <mxCell id="mtoPgqjbaPqBO0kMTFjv-18" value="" style="rounded=0;whiteSpace=wrap;html=1;rotation=90;" parent="1" vertex="1">
          <mxGeometry x="551" y="492" width="120" height="60" as="geometry" />
        </mxCell>
        <mxCell id="mtoPgqjbaPqBO0kMTFjv-19" value="" style="rounded=0;whiteSpace=wrap;html=1;rotation=90;" parent="1" vertex="1">
          <mxGeometry x="601" y="442" width="20" height="60" as="geometry" />
        </mxCell>
        <mxCell id="mtoPgqjbaPqBO0kMTFjv-20" value="" style="rounded=0;whiteSpace=wrap;html=1;rotation=90;" parent="1" vertex="1">
          <mxGeometry x="601" y="462" width="20" height="60" as="geometry" />
        </mxCell>
        <mxCell id="mtoPgqjbaPqBO0kMTFjv-21" value="" style="rounded=0;whiteSpace=wrap;html=1;rotation=90;" parent="1" vertex="1">
          <mxGeometry x="601" y="482" width="20" height="60" as="geometry" />
        </mxCell>
        <mxCell id="mtoPgqjbaPqBO0kMTFjv-22" value="" style="rounded=0;whiteSpace=wrap;html=1;rotation=90;" parent="1" vertex="1">
          <mxGeometry x="601" y="502" width="20" height="60" as="geometry" />
        </mxCell>
        <mxCell id="mtoPgqjbaPqBO0kMTFjv-23" value="" style="rounded=0;whiteSpace=wrap;html=1;rotation=90;" parent="1" vertex="1">
          <mxGeometry x="601" y="522" width="20" height="60" as="geometry" />
        </mxCell>
        <mxCell id="mtoPgqjbaPqBO0kMTFjv-24" value="" style="endArrow=classic;html=1;rounded=0;" parent="1" edge="1">
          <mxGeometry width="50" height="50" relative="1" as="geometry">
            <mxPoint x="461" y="442" as="sourcePoint" />
            <mxPoint x="571" y="442" as="targetPoint" />
          </mxGeometry>
        </mxCell>
        <mxCell id="mtoPgqjbaPqBO0kMTFjv-27" value="" style="group" parent="1" vertex="1" connectable="0">
          <mxGeometry x="740" y="340" width="340" height="200" as="geometry" />
        </mxCell>
        <mxCell id="mtoPgqjbaPqBO0kMTFjv-25" value="" style="rounded=1;whiteSpace=wrap;html=1;fillColor=#f8cecc;strokeColor=#b85450;" parent="mtoPgqjbaPqBO0kMTFjv-27" vertex="1">
          <mxGeometry width="340" height="200" as="geometry" />
        </mxCell>
        <mxCell id="mtoPgqjbaPqBO0kMTFjv-26" value="&lt;font style=&quot;font-size: 18px;&quot;&gt;Manual classification head&lt;br&gt;&lt;/font&gt;" style="text;html=1;strokeColor=none;fillColor=none;align=center;verticalAlign=middle;whiteSpace=wrap;rounded=0;" parent="mtoPgqjbaPqBO0kMTFjv-27" vertex="1">
          <mxGeometry x="55" y="30" width="230" height="140" as="geometry" />
        </mxCell>
        <mxCell id="mtoPgqjbaPqBO0kMTFjv-28" value="" style="endArrow=classic;html=1;rounded=0;exitX=0.5;exitY=1;exitDx=0;exitDy=0;entryX=0.5;entryY=0;entryDx=0;entryDy=0;" parent="1" source="mtoPgqjbaPqBO0kMTFjv-3" target="mtoPgqjbaPqBO0kMTFjv-25" edge="1">
          <mxGeometry width="50" height="50" relative="1" as="geometry">
            <mxPoint x="590" y="430" as="sourcePoint" />
            <mxPoint x="640" y="380" as="targetPoint" />
          </mxGeometry>
        </mxCell>
        <mxCell id="mtoPgqjbaPqBO0kMTFjv-30" value="" style="endArrow=classic;html=1;rounded=0;entryX=0;entryY=0.5;entryDx=0;entryDy=0;" parent="1" target="mtoPgqjbaPqBO0kMTFjv-25" edge="1">
          <mxGeometry width="50" height="50" relative="1" as="geometry">
            <mxPoint x="650" y="440" as="sourcePoint" />
            <mxPoint x="640" y="380" as="targetPoint" />
          </mxGeometry>
        </mxCell>
        <mxCell id="mtoPgqjbaPqBO0kMTFjv-31" value="" style="endArrow=classic;html=1;rounded=0;exitX=1;exitY=0.5;exitDx=0;exitDy=0;" parent="1" source="mtoPgqjbaPqBO0kMTFjv-25" edge="1">
          <mxGeometry width="50" height="50" relative="1" as="geometry">
            <mxPoint x="720" y="510" as="sourcePoint" />
            <mxPoint x="1160" y="440" as="targetPoint" />
          </mxGeometry>
        </mxCell>
        <mxCell id="mtoPgqjbaPqBO0kMTFjv-32" value="Class output" style="text;html=1;strokeColor=none;fillColor=none;align=center;verticalAlign=middle;whiteSpace=wrap;rounded=0;" parent="1" vertex="1">
          <mxGeometry x="1140" y="412" width="140" height="60" as="geometry" />
        </mxCell>
        <mxCell id="mtoPgqjbaPqBO0kMTFjv-33" value="Automatically generate" style="text;html=1;strokeColor=none;fillColor=none;align=center;verticalAlign=middle;whiteSpace=wrap;rounded=0;" parent="1" vertex="1">
          <mxGeometry x="900" y="302" width="120" height="30" as="geometry" />
        </mxCell>
        <mxCell id="RLAj2HNEPrsZ5PwM3Uir-1" value="" style="group;" vertex="1" connectable="0" parent="1">
          <mxGeometry x="-350" y="332" width="330" height="220" as="geometry" />
        </mxCell>
        <mxCell id="RLAj2HNEPrsZ5PwM3Uir-11" style="edgeStyle=orthogonalEdgeStyle;rounded=0;orthogonalLoop=1;jettySize=auto;html=1;entryX=0;entryY=0.5;entryDx=0;entryDy=0;" edge="1" parent="RLAj2HNEPrsZ5PwM3Uir-1" source="RLAj2HNEPrsZ5PwM3Uir-10" target="RLAj2HNEPrsZ5PwM3Uir-5">
          <mxGeometry relative="1" as="geometry" />
        </mxCell>
        <mxCell id="RLAj2HNEPrsZ5PwM3Uir-10" value="" style="shape=trapezoid;perimeter=trapezoidPerimeter;whiteSpace=wrap;html=1;fixedSize=1;rotation=90;fillColor=#ffe6cc;strokeColor=#d79b00;" vertex="1" parent="RLAj2HNEPrsZ5PwM3Uir-1">
          <mxGeometry x="-10" y="30" width="170" height="160" as="geometry" />
        </mxCell>
        <mxCell id="RLAj2HNEPrsZ5PwM3Uir-3" value="&lt;div&gt;&lt;font style=&quot;font-size: 19px;&quot;&gt;VQVAE&lt;/font&gt;&lt;/div&gt;&lt;div&gt;&lt;font style=&quot;font-size: 19px;&quot;&gt;Encoder&lt;/font&gt;&lt;/div&gt;" style="text;html=1;strokeColor=none;fillColor=none;align=center;verticalAlign=middle;whiteSpace=wrap;rounded=0;" vertex="1" parent="RLAj2HNEPrsZ5PwM3Uir-1">
          <mxGeometry x="25" y="75" width="100" height="70" as="geometry" />
        </mxCell>
        <mxCell id="RLAj2HNEPrsZ5PwM3Uir-5" value="Quantized latent vectors" style="text;html=1;strokeColor=none;fillColor=none;align=center;verticalAlign=middle;whiteSpace=wrap;rounded=0;" vertex="1" parent="RLAj2HNEPrsZ5PwM3Uir-1">
          <mxGeometry x="250" y="91" width="80" height="38" as="geometry" />
        </mxCell>
        <mxCell id="RLAj2HNEPrsZ5PwM3Uir-4" style="edgeStyle=orthogonalEdgeStyle;rounded=0;orthogonalLoop=1;jettySize=auto;html=1;entryX=0;entryY=0.5;entryDx=0;entryDy=0;" edge="1" parent="1" source="RLAj2HNEPrsZ5PwM3Uir-5" target="mtoPgqjbaPqBO0kMTFjv-1">
          <mxGeometry relative="1" as="geometry" />
        </mxCell>
        <mxCell id="RLAj2HNEPrsZ5PwM3Uir-9" style="edgeStyle=orthogonalEdgeStyle;rounded=0;orthogonalLoop=1;jettySize=auto;html=1;entryX=0;entryY=0.5;entryDx=0;entryDy=0;" edge="1" parent="1" source="RLAj2HNEPrsZ5PwM3Uir-8">
          <mxGeometry relative="1" as="geometry">
            <mxPoint x="-350" y="442" as="targetPoint" />
          </mxGeometry>
        </mxCell>
        <mxCell id="RLAj2HNEPrsZ5PwM3Uir-8" value="" style="sketch=0;outlineConnect=0;fontColor=#232F3E;gradientColor=none;fillColor=#D45B07;strokeColor=none;dashed=0;verticalLabelPosition=bottom;verticalAlign=top;align=center;html=1;fontSize=12;fontStyle=0;aspect=fixed;pointerEvents=1;shape=mxgraph.aws4.container_registry_image;" vertex="1" parent="1">
          <mxGeometry x="-630" y="367" width="150" height="150" as="geometry" />
        </mxCell>
        <mxCell id="RLAj2HNEPrsZ5PwM3Uir-16" style="edgeStyle=orthogonalEdgeStyle;rounded=0;orthogonalLoop=1;jettySize=auto;html=1;entryX=0.5;entryY=1;entryDx=0;entryDy=0;" edge="1" parent="1" source="RLAj2HNEPrsZ5PwM3Uir-12" target="RLAj2HNEPrsZ5PwM3Uir-15">
          <mxGeometry relative="1" as="geometry" />
        </mxCell>
        <mxCell id="RLAj2HNEPrsZ5PwM3Uir-12" value="" style="shape=trapezoid;perimeter=trapezoidPerimeter;whiteSpace=wrap;html=1;fixedSize=1;rotation=-180;fillColor=#ffe6cc;strokeColor=#d79b00;" vertex="1" parent="1">
          <mxGeometry x="-145" y="202" width="170" height="160" as="geometry" />
        </mxCell>
        <mxCell id="RLAj2HNEPrsZ5PwM3Uir-13" style="edgeStyle=orthogonalEdgeStyle;rounded=0;orthogonalLoop=1;jettySize=auto;html=1;exitX=0.5;exitY=0;exitDx=0;exitDy=0;entryX=0.5;entryY=0;entryDx=0;entryDy=0;" edge="1" parent="1" source="RLAj2HNEPrsZ5PwM3Uir-5" target="RLAj2HNEPrsZ5PwM3Uir-12">
          <mxGeometry relative="1" as="geometry" />
        </mxCell>
        <mxCell id="RLAj2HNEPrsZ5PwM3Uir-14" value="&lt;div&gt;&lt;font style=&quot;font-size: 19px;&quot;&gt;VQVAE&lt;/font&gt;&lt;/div&gt;&lt;div&gt;&lt;font style=&quot;font-size: 19px;&quot;&gt;Decoder&lt;br&gt;&lt;/font&gt;&lt;/div&gt;" style="text;html=1;strokeColor=none;fillColor=none;align=center;verticalAlign=middle;whiteSpace=wrap;rounded=0;" vertex="1" parent="1">
          <mxGeometry x="-110" y="250" width="100" height="70" as="geometry" />
        </mxCell>
        <mxCell id="RLAj2HNEPrsZ5PwM3Uir-15" value="&lt;font style=&quot;font-size: 19px;&quot;&gt;Reconstruction&lt;/font&gt;" style="text;html=1;strokeColor=none;fillColor=none;align=center;verticalAlign=middle;whiteSpace=wrap;rounded=0;" vertex="1" parent="1">
          <mxGeometry x="-135" y="100" width="150" height="40" as="geometry" />
        </mxCell>
        <mxCell id="RLAj2HNEPrsZ5PwM3Uir-17" value="" style="rounded=0;whiteSpace=wrap;html=1;rotation=90;" vertex="1" parent="1">
          <mxGeometry x="-120" y="492" width="120" height="60" as="geometry" />
        </mxCell>
        <mxCell id="RLAj2HNEPrsZ5PwM3Uir-18" value="" style="rounded=0;whiteSpace=wrap;html=1;rotation=90;" vertex="1" parent="1">
          <mxGeometry x="-70" y="442" width="20" height="60" as="geometry" />
        </mxCell>
        <mxCell id="RLAj2HNEPrsZ5PwM3Uir-19" value="" style="rounded=0;whiteSpace=wrap;html=1;rotation=90;" vertex="1" parent="1">
          <mxGeometry x="-70" y="462" width="20" height="60" as="geometry" />
        </mxCell>
        <mxCell id="RLAj2HNEPrsZ5PwM3Uir-20" value="" style="rounded=0;whiteSpace=wrap;html=1;rotation=90;" vertex="1" parent="1">
          <mxGeometry x="-70" y="482" width="20" height="60" as="geometry" />
        </mxCell>
        <mxCell id="RLAj2HNEPrsZ5PwM3Uir-21" value="" style="rounded=0;whiteSpace=wrap;html=1;rotation=90;" vertex="1" parent="1">
          <mxGeometry x="-70" y="502" width="20" height="60" as="geometry" />
        </mxCell>
        <mxCell id="RLAj2HNEPrsZ5PwM3Uir-22" value="" style="rounded=0;whiteSpace=wrap;html=1;rotation=90;" vertex="1" parent="1">
          <mxGeometry x="-70" y="522" width="20" height="60" as="geometry" />
        </mxCell>
        <mxCell id="RLAj2HNEPrsZ5PwM3Uir-23" value="Quantized feature vectors" style="text;html=1;strokeColor=none;fillColor=none;align=center;verticalAlign=middle;whiteSpace=wrap;rounded=0;" vertex="1" parent="1">
          <mxGeometry x="567" y="421" width="89" height="38" as="geometry" />
        </mxCell>
        <mxCell id="RLAj2HNEPrsZ5PwM3Uir-24" value="Vertical Sum" style="text;html=1;strokeColor=none;fillColor=none;align=center;verticalAlign=middle;whiteSpace=wrap;rounded=0;" vertex="1" parent="1">
          <mxGeometry x="670" y="412" width="60" height="30" as="geometry" />
        </mxCell>
      </root>
    </mxGraphModel>
  </diagram>
</mxfile>
